<?xml version="1.0" encoding="UTF-8"?><!--
  - This file is distributed under the GPLv3. An informal description follows:
  -  Anyone can copy, modify and distribute this software as long as the other points are followed.
  -  You must include the license and copyright notice with each and every distribution.
  -  You may this software for commercial purposes.
  -  If you modify it, you must indicate changes made to the code.
  -  Any modifications of this code base MUST be distributed with the same license, GPLv3.
  -  This software is provided without warranty.
  -  The software author or license can not be held liable for any damages inflicted by the software.
  - The full license is available from <https://www.gnu.org/licenses/gpl-3.0.txt>.
  -->

<!DOCTYPE svg PUBLIC "-//W3C//DTD SVG 1.1//EN" "http://www.w3.org/Graphics/SVG/1.1/DTD/svg11.dtd"><svg xmlns="http://www.w3.org/2000/svg" xmlns:xlink="http://www.w3.org/1999/xlink" version="1.1" width="24" height="24" viewBox="0 0 24 24"><path d="M2.05,13H21.94C21.88,13.69 21.74,14.36 21.54,15H14V17H17V19H15V21H12.5V22C12.33,22 12.17,22 12,22C6.82,22 2.55,18.05 2.05,13M21.94,11H2.05C2.55,5.95 6.82,2 12,2C13.62,2 15.15,2.39 16.5,3.08V5H18.5V7H20V9H21.54C21.74,9.64 21.88,10.31 21.94,11M12,6.75A2.5,2.5 0 0,0 9.5,4.25A2.5,2.5 0 0,0 7,6.75A2.5,2.5 0 0,0 9.5,9.25A2.5,2.5 0 0,0 12,6.75Z" /></svg>