<?xml version="1.0" encoding="UTF-8" standalone="no"?>
<svg
   version="1.1"
   x="0px"
   y="0px"
   viewBox="0 0 162.68758 162.5"
   id="svg58"
   sodipodi:docname="icon-nexus.svg"
   width="162.68758"
   height="162.5"
   inkscape:version="1.1.1 (3bf5ae0d25, 2021-09-20)"
   xmlns:inkscape="http://www.inkscape.org/namespaces/inkscape"
   xmlns:sodipodi="http://sodipodi.sourceforge.net/DTD/sodipodi-0.dtd"
   xmlns="http://www.w3.org/2000/svg"
   xmlns:svg="http://www.w3.org/2000/svg">
  <defs
     id="defs62" />
  <sodipodi:namedview
     id="namedview60"
     pagecolor="#ffffff"
     bordercolor="#666666"
     borderopacity="1.0"
     inkscape:pageshadow="2"
     inkscape:pageopacity="0.0"
     inkscape:pagecheckerboard="0"
     showgrid="false"
     inkscape:zoom="3.0302163"
     inkscape:cx="136.1289"
     inkscape:cy="106.42805"
     inkscape:window-width="1920"
     inkscape:window-height="1017"
     inkscape:window-x="291"
     inkscape:window-y="1711"
     inkscape:window-maximized="1"
     inkscape:current-layer="g56"
     fit-margin-top="0"
     fit-margin-left="0"
     fit-margin-right="0"
     fit-margin-bottom="0" />
  <g
     id="g56"
     inkscape:export-filename="F:\Code\Starsector\SMOL\App\main\resources\g56.png"
     inkscape:export-xdpi="96"
     inkscape:export-ydpi="96"
     transform="translate(-0.01289026)">
    <path
       id="path2"
       d="M 117.78711 0 C 114.88711 0 112.6875 0.69960919 111.6875 1.0996094 L 111.58789 1.0996094 C 107.08789 2.4996094 102.78789 4.8 98.087891 8 C 96.687891 7.7 95.286719 7.3992188 93.886719 7.1992188 C 87.986719 6.1992188 81.7875 5.9003906 75.6875 6.4003906 C 69.8875 6.8003906 64.0875 8.0007812 58.6875 9.8007812 C 56.3875 10.600781 54.187891 11.400781 52.087891 12.300781 C 48.887891 11.100781 45.287109 10.000391 41.287109 9.4003906 C 38.687109 9.0003906 35.986328 8.8007812 33.486328 8.8007812 L 33.386719 8.8007812 C 32.086719 8.8007812 30.787891 8.9 29.587891 9 C 25.787891 9.1 22.986328 10.400391 20.986328 11.900391 C 20.086328 12.500391 19.287891 13.2 18.587891 14 L 17.1875 15.400391 C 15.5875 17.000391 14.087891 18.799609 12.587891 20.599609 C 9.2878874 24.699609 6.5867187 28.500781 4.3867188 32.300781 C 3.3867187 34.000781 2.0875 36.299609 1.1875 39.099609 C 0.6875 40.599609 0.3875 42.000391 0.1875 43.400391 C -0.4125 47.200391 0.58632813 50.200391 0.98632812 51.400391 L 0.98632812 51.5 C 2.8863281 57.3 5.8871094 62.300781 8.2871094 65.800781 C 7.9871094 67.000781 7.7878906 68.299609 7.5878906 69.599609 C 6.6878906 75.699609 6.4878906 81.9 7.0878906 88 C 7.6878906 93.8 8.8875 99.600789 10.6875 104.80078 C 11.0875 105.80078 11.387109 106.79922 11.787109 107.69922 L 11.486328 108.59961 C 10.186328 112.09961 8.4871094 116.70039 7.7871094 121.90039 C 7.3871094 124.40039 7.2871094 127.00039 7.2871094 129.40039 C 7.2871094 130.60039 7.3863281 131.70078 7.4863281 132.80078 C 7.5863281 136.20078 8.6863281 138.80078 9.9863281 140.80078 C 10.686328 141.90078 11.587891 142.90078 12.587891 143.80078 L 13.986328 145.19922 C 15.686328 146.79922 17.487109 148.40039 19.287109 149.90039 C 23.387109 153.30039 27.287891 155.99922 31.087891 158.19922 C 32.787891 159.19922 35.186328 160.50039 37.986328 161.40039 C 39.586328 161.90039 40.986328 162.20039 42.486328 162.40039 C 43.086328 162.50039 43.786719 162.5 44.386719 162.5 C 47.286719 162.5 49.486328 161.70078 50.486328 161.80078 L 50.587891 161.80078 C 55.387891 160.20078 59.9875 157.79961 65.1875 154.09961 C 65.8875 154.19961 66.686719 154.4 67.386719 154.5 C 73.386719 155.6 79.5875 156.09922 85.6875 155.69922 C 91.5875 155.39922 97.487899 154.29961 103.08789 152.59961 C 104.98789 151.99961 106.98672 151.3 108.88672 150.5 C 112.48672 151.9 116.48633 153.3 120.98633 154 C 123.78633 154.5 126.4875 154.69922 129.1875 154.69922 L 129.28711 154.69922 C 130.58711 154.69922 131.88789 154.6 133.08789 154.5 C 136.88789 154.3 139.6875 153.09961 141.6875 151.59961 C 142.5875 150.89961 143.38789 150.20039 144.08789 149.40039 L 145.28711 148.19922 C 148.48711 144.79922 151.58711 141.10078 154.28711 137.30078 C 156.78711 133.80078 159.58672 129.6 161.38672 124.5 C 161.88672 123 162.28633 121.70078 162.48633 120.30078 C 163.08633 116.30078 162.18711 113.29961 161.78711 112.09961 C 160.78711 108.89961 159.3875 105.80078 157.6875 102.80078 C 156.6875 101.00078 155.4875 99.200781 154.1875 97.300781 C 156.3875 87.500781 156.58711 77.300391 154.78711 67.400391 C 153.88711 62.700391 152.58711 58.099609 150.78711 53.599609 C 151.68711 51.199609 152.4875 48.800391 153.1875 46.400391 C 154.0875 43.200391 154.58711 39.7 154.78711 36 C 154.88711 34.3 154.88711 32.6 154.78711 31 C 154.68711 26.4 153.28633 23.100781 151.48633 20.800781 C 150.98633 20.000781 150.28789 19.299219 149.58789 18.699219 L 148.1875 17.300781 C 146.4875 15.700781 144.68672 14.099609 142.88672 12.599609 C 138.78672 9.1996126 134.88789 6.5007814 131.08789 4.3007812 C 129.38789 3.3007813 126.9875 1.9996094 124.1875 1.0996094 C 122.5875 0.59960913 121.1875 0.29960938 119.6875 0.099609375 C 119.0875 -0.000390625 118.38711 0 117.78711 0 z M 117.58789 14.099609 C 121.98789 14.199609 132.18633 21.5 137.98633 27 L 140.38672 29.300781 C 133.88672 28.200781 125.98711 32.200781 118.28711 39.800781 C 114.98711 42.900781 111.88789 46.599609 109.08789 50.599609 C 107.18789 53.199609 105.58633 55.800781 103.98633 59.300781 L 111.98633 63.599609 L 85.587891 73.599609 L 77.986328 45.300781 L 84.986328 49 C 94.186328 28 102.08672 22.099609 106.88672 19.099609 L 106.98633 19.099609 C 110.28633 16.799609 113.68789 15.199219 117.08789 14.199219 L 117.58789 14.099609 z M 29.287109 23.099609 C 28.187109 29.599609 32.187109 37.499219 39.787109 45.199219 C 42.887109 48.499219 46.587891 51.600391 50.587891 54.400391 C 53.187891 56.300391 55.787109 57.9 59.287109 59.5 L 63.486328 51.5 L 73.587891 78 L 45.287109 85.599609 L 48.986328 78.599609 C 27.986328 69.399609 22.087891 61.499219 19.087891 56.699219 L 19.087891 56.599609 C 16.787891 53.299609 15.1875 49.9 14.1875 46.5 L 14.087891 46 C 14.187891 41.6 21.486328 31.399609 26.986328 25.599609 L 29.287109 23.099609 z M 117.28711 77.5 L 113.58789 84.5 C 134.58789 93.7 140.48633 101.60039 143.48633 106.40039 L 143.48633 106.5 C 145.78633 109.8 147.38672 113.19961 148.38672 116.59961 L 148.48633 117.09961 C 148.38633 121.49961 141.08789 131.7 135.58789 137.5 L 133.28711 139.90039 C 134.38711 133.40039 130.38711 125.50078 122.78711 117.80078 C 119.68711 114.50078 115.98633 111.39961 111.98633 108.59961 C 109.38633 106.69961 106.78711 105.1 103.28711 103.5 L 99.1875 111.30078 L 88.986328 85.099609 L 117.28711 77.5 z M 76.587891 88.900391 L 84.1875 117.19922 L 77.1875 113.5 C 67.9875 134.5 60.087109 140.40039 55.287109 143.40039 L 55.1875 143.40039 C 51.8875 145.70039 48.487891 147.30078 45.087891 148.30078 L 44.587891 148.40039 C 40.187891 148.30039 29.9875 141 24.1875 135.5 L 21.787109 133.19922 C 28.287109 134.29922 36.186719 130.29922 43.886719 122.69922 C 47.186719 119.59922 50.287891 115.90039 53.087891 111.90039 C 54.987891 109.30039 56.5875 106.69922 58.1875 103.19922 L 50.287109 98.900391 L 76.587891 88.900391 z "
       transform="translate(0.01289026)" />
  </g>
</svg>
