<svg xmlns="http://www.w3.org/2000/svg" viewBox="0 0 24 24"><path d="M6 2c-1.11 0-2 .89-2 2v16a2 2 0 0 0 2 2h12a2 2 0 0 0 2-2V8l-6-6H6zm7 1.5L18.5 9H13V3.5zm-3.164 6.71 1.314 1.282a3.68 3.68 0 0 1 1.705 0l1.31-1.281.85.832-.984.941c.452.296.827.71 1.098 1.182h1.695v1.182h-1.26c.037.195.053.39.053.591v.59h1.207v1.184h-1.207v.59c0 .2-.016.396-.053.592h1.26v1.181H15.13a3.553 3.553 0 0 1-1.32 1.29c-1.725.98-3.937.407-4.938-1.29H7.176v-1.181h1.26a3.225 3.225 0 0 1-.053-.592v-.59H7.176v-1.184h1.207v-.59c0-.2.016-.396.053-.591h-1.26v-1.182H8.87a3.503 3.503 0 0 1 1.09-1.182l-.977-.941.852-.832zM12 12.575a2.412 2.364 0 0 0-2.412 2.365v2.364A2.412 2.364 0 0 0 12 19.668a2.412 2.364 0 0 0 2.412-2.365v-2.364A2.412 2.364 0 0 0 12 12.574zm-1.205 1.774h2.41v1.181h-2.41v-1.181zm0 2.365h2.41v1.182h-2.41v-1.182z"/></svg>