<?xml version="1.0" encoding="UTF-8" standalone="no"?>
<svg
   version="1.1"
   width="24"
   height="24"
   viewBox="0 0 24 24"
   id="svg140"
   sodipodi:docname="icon-file-debug.svg"
   inkscape:version="1.1.1 (3bf5ae0d25, 2021-09-20)"
   xmlns:inkscape="http://www.inkscape.org/namespaces/inkscape"
   xmlns:sodipodi="http://sodipodi.sourceforge.net/DTD/sodipodi-0.dtd"
   xmlns="http://www.w3.org/2000/svg"
   xmlns:svg="http://www.w3.org/2000/svg">
  <defs
     id="defs144" />
  <sodipodi:namedview
     id="namedview142"
     pagecolor="#ffffff"
     bordercolor="#666666"
     borderopacity="1.0"
     inkscape:pageshadow="2"
     inkscape:pageopacity="0.0"
     inkscape:pagecheckerboard="0"
     showgrid="false"
     inkscape:zoom="12.177083"
     inkscape:cx="23.527802"
     inkscape:cy="0.94439692"
     inkscape:window-width="2560"
     inkscape:window-height="1377"
     inkscape:window-x="-8"
     inkscape:window-y="271"
     inkscape:window-maximized="1"
     inkscape:current-layer="svg140" />
  <path
     id="path138"
     d="M 6 2 C 4.89 2 4 2.89 4 4 L 4 20 C 4 21.1 4.89 22 6 22 L 18 22 C 19.104569 22 20 21.104569 20 20 L 20 8 L 14 2 L 6 2 z M 13 3.5 L 18.5 9 L 13 9 L 13 3.5 z M 9.8359375 10.210938 L 11.150391 11.492188 C 11.427762 11.427162 11.698508 11.392578 12 11.392578 C 12.301492 11.392578 12.578097 11.427148 12.855469 11.492188 L 14.164062 10.210938 L 15.015625 11.042969 L 14.03125 11.984375 C 14.483488 12.279935 14.857564 12.693119 15.128906 13.166016 L 16.824219 13.166016 L 16.824219 14.347656 L 15.564453 14.347656 C 15.600633 14.542726 15.617188 14.738473 15.617188 14.939453 L 15.617188 15.529297 L 16.824219 15.529297 L 16.824219 16.712891 L 15.617188 16.712891 L 15.617188 17.302734 C 15.617188 17.503713 15.600633 17.699461 15.564453 17.894531 L 16.824219 17.894531 L 16.824219 19.076172 L 15.128906 19.076172 C 14.815354 19.608179 14.35731 20.057853 13.808594 20.365234 C 12.084055 21.346492 9.8720492 20.772682 8.8710938 19.076172 L 7.1757812 19.076172 L 7.1757812 17.894531 L 8.4355469 17.894531 C 8.3993609 17.699461 8.3828125 17.503713 8.3828125 17.302734 L 8.3828125 16.712891 L 7.1757812 16.712891 L 7.1757812 15.529297 L 8.3828125 15.529297 L 8.3828125 14.939453 C 8.3828125 14.738473 8.3993729 14.542726 8.4355469 14.347656 L 7.1757812 14.347656 L 7.1757812 13.166016 L 8.8710938 13.166016 C 9.1424381 12.699032 9.5086986 12.279935 9.9609375 11.984375 L 8.984375 11.042969 L 9.8359375 10.210938 z M 12 12.574219 A 2.4119398 2.3644744 0 0 0 9.5878906 14.939453 L 9.5878906 17.302734 A 2.4119398 2.3644744 0 0 0 12 19.667969 A 2.4119398 2.3644744 0 0 0 14.412109 17.302734 L 14.412109 14.939453 A 2.4119398 2.3644744 0 0 0 12 12.574219 z M 10.794922 14.347656 L 13.205078 14.347656 L 13.205078 15.529297 L 10.794922 15.529297 L 10.794922 14.347656 z M 10.794922 16.712891 L 13.205078 16.712891 L 13.205078 17.894531 L 10.794922 17.894531 L 10.794922 16.712891 z " />
</svg>
