<?xml version="1.0" encoding="UTF-8" standalone="no"?>
<svg
        version="1.1"
        width="24"
        height="24"
        viewBox="0 0 24 24"
        id="svg41"
        sodipodi:docname="package-check.svg"
        inkscape:version="1.1.1 (3bf5ae0d25, 2021-09-20)"
        xmlns:inkscape="http://www.inkscape.org/namespaces/inkscape"
        xmlns:sodipodi="http://sodipodi.sourceforge.net/DTD/sodipodi-0.dtd"
        xmlns="http://www.w3.org/2000/svg"
>
    <defs
            id="defs45"/>
    <sodipodi:namedview
            id="namedview43"
            pagecolor="#ffffff"
            bordercolor="#666666"
            borderopacity="1.0"
            inkscape:pageshadow="2"
            inkscape:pageopacity="0.0"
            inkscape:pagecheckerboard="0"
            showgrid="false"
            inkscape:zoom="2.2734375"
            inkscape:cx="-3.7388316"
            inkscape:cy="-1.0996564"
            inkscape:window-width="2560"
            inkscape:window-height="1377"
            inkscape:window-x="-8"
            inkscape:window-y="264"
            inkscape:window-maximized="1"
            inkscape:current-layer="svg41"/>
    <path
            id="path39"
            d="M 6 3 C 5.53 3 5.1198436 3.2107813 4.8398438 3.5507812 L 3.4609375 5.2304688 C 3.1709375 5.5704687 3 6 3 6.5 L 3 19 C 3 20.104569 3.8954305 21 5 21 L 19 21 C 20.104569 21 21 20.104569 21 19 L 21 6.5 C 21 6 20.829062 5.5704687 20.539062 5.2304688 L 19.150391 3.5507812 C 18.880391 3.2107813 18.47 3 18 3 L 6 3 z M 5.9296875 4 L 17.929688 4 L 18.869141 5 L 5.1191406 5 L 5.9296875 4 z M 15.505859 9.1152344 L 17.001953 10.613281 L 10.28125 17.333984 L 6.9980469 14.048828 L 8.4941406 12.552734 L 10.28125 14.345703 L 15.505859 9.1152344 z "/>
</svg>
