<svg width="100%" height="100%" viewBox="0 0 24 24" version="1.1" xmlns="http://www.w3.org/2000/svg" xmlns:xlink="http://www.w3.org/1999/xlink" xml:space="preserve" xmlns:serif="http://www.serif.com/" style="fill-rule:evenodd;clip-rule:evenodd;stroke-linejoin:round;stroke-miterlimit:2;">
    <path d="M18,14.5C16.89,14.5 15.89,14.95 15.17,15.67L14,14.5L14,18.5L18,18.5L16.23,16.73C16.68,16.28 17.31,16 18,16C19.38,16 20.5,17.12 20.5,18.5C20.5,19.88 19.38,21 18,21C17.18,21 16.46,20.61 16,20L14.29,20C14.88,21.47 16.32,22.5 18,22.5C20.21,22.5 22,20.71 22,18.5C22,16.29 20.21,14.5 18,14.5M10,4L12,6L20,6C21.1,6 22,6.89 22,8L22,13C21,12.38 19.79,12 18.5,12C14.91,12 12,14.91 12,18.5C12,19 12.06,19.5 12.17,20L4,20C2.89,20 2,19.1 2,18L2,6C2,4.89 2.89,4 4,4L10,4Z" style="fill-rule:nonzero;"/>
</svg>
