<svg version="1.1" id="Layer_1" xmlns="http://www.w3.org/2000/svg" xmlns:xlink="http://www.w3.org/1999/xlink" x="0px" y="0px"
	 width="100%" viewBox="0 0 64 64" enable-background="new 0 0 64 64" xml:space="preserve">
<path fill="#B2B2B2" opacity="1.000000" stroke="none" 
	d="
M35.000000,65.000000 
	C23.355185,65.000000 12.210369,65.000000 1.032777,65.000000 
	C1.032777,43.730305 1.032777,22.460548 1.032777,1.095395 
	C22.227612,1.095395 43.455791,1.095395 64.841988,1.095395 
	C64.841988,22.332405 64.841988,43.666084 64.841988,65.000000 
	C55.128159,65.000000 45.314079,65.000000 35.000000,65.000000 
M16.195766,13.048411 
	C15.464450,13.095522 14.733132,13.142632 13.287842,13.179726 
	C11.573317,13.807917 9.858791,14.436108 7.443646,15.268303 
	C6.463933,17.195059 5.484220,19.121815 4.201549,21.484158 
	C4.214133,22.024469 4.226717,22.564781 4.092448,23.881954 
	C4.125830,24.930504 4.159211,25.979055 4.143246,27.646618 
	C4.541001,28.059835 4.938755,28.473051 4.919762,29.473476 
	C3.782506,32.362850 4.685481,34.273201 7.955967,35.610905 
	C8.337108,35.931820 8.718248,36.252735 8.670638,37.141289 
	C10.161997,37.428558 11.650110,37.942402 13.145277,37.963818 
	C19.569122,38.055832 25.995041,38.003098 33.860287,38.003098 
	C32.663986,40.301723 31.884552,42.785015 31.317934,42.737370 
	C24.833677,42.192135 17.754381,45.507542 11.181293,40.014805 
	C10.124592,40.068832 9.067889,40.122856 7.285717,40.060116 
	C6.245490,41.039837 5.205262,42.019558 4.062613,43.710159 
	C4.420515,44.826805 4.778418,45.943451 5.170264,47.587383 
	C5.408339,47.834000 5.646413,48.080616 5.987433,48.835361 
	C6.581820,49.424606 7.176208,50.013851 8.347385,50.917770 
	C8.562209,50.950081 8.777034,50.982391 9.485627,51.505791 
	C10.790151,51.904968 12.094674,52.304146 13.952595,53.306644 
	C18.792116,53.527630 23.639105,53.958477 28.464649,53.786724 
	C29.393156,53.753681 30.237520,51.356499 31.505047,50.016476 
	C31.505047,50.016476 31.890303,50.036949 31.985165,50.757507 
	C32.053894,55.019745 34.998180,50.872707 36.423923,52.610153 
	C36.996899,52.669815 37.569874,52.729477 38.142849,52.789139 
	C38.017593,52.449448 37.892334,52.109753 38.123890,51.260986 
	C38.593792,50.867706 39.063690,50.474430 40.109150,49.854935 
	C40.730610,48.567108 41.352070,47.279282 42.637932,45.540398 
	C42.700981,43.367123 42.764034,41.193851 42.920567,38.484596 
	C42.897125,38.304760 42.873680,38.124928 42.978069,37.289280 
	C42.704121,36.519207 42.430172,35.749138 42.020401,34.337124 
	C41.116531,33.208637 40.212658,32.080147 38.996807,30.440989 
	C38.656342,30.242041 38.315876,30.043091 37.840366,29.039724 
	C36.168491,28.692421 34.501919,28.078970 32.823795,28.045555 
	C26.739136,27.924406 20.650606,27.997810 13.108644,27.997810 
	C14.333657,25.684204 15.125526,23.209608 15.696812,23.259527 
	C22.172775,23.825373 29.260271,20.464739 35.760426,25.998669 
	C36.502132,25.948980 37.243843,25.899290 38.722710,25.960045 
	C40.095634,25.304148 41.468559,24.648251 42.965595,23.304296 
	C42.675159,22.466475 42.384727,21.628651 42.080517,20.121325 
	C41.937679,19.699652 41.794842,19.277981 41.632973,18.495087 
	C41.632973,18.495087 41.589870,18.135942 41.667690,17.678129 
	C41.572018,17.351202 41.360210,17.141472 40.671471,16.586187 
	C40.169376,16.295692 39.667286,16.005199 38.873260,15.244358 
	C38.237316,14.931467 37.601368,14.618577 36.284821,14.140634 
	C35.820168,14.172064 35.355515,14.203494 34.280094,14.039856 
	C33.650818,13.942344 33.021538,13.844831 31.792105,13.226103 
	C30.204937,13.199057 28.617771,13.172010 26.228165,13.023322 
	C25.151936,13.075829 24.075708,13.128335 22.268255,13.025936 
	C21.523384,13.056284 20.778513,13.086632 19.257431,13.025508 
	C18.478556,13.076675 17.699682,13.127844 16.195766,13.048411 
M57.934280,26.108778 
	C57.934280,26.108778 57.879452,26.194012 58.180435,25.351482 
	C58.129436,25.057877 58.078442,24.764271 57.988811,24.407904 
	C57.988811,24.407904 57.944565,24.348961 58.642345,24.234150 
	C58.857773,24.138470 59.073204,24.042789 59.682312,23.878538 
	C59.682312,23.878538 60.036293,24.063971 60.460678,24.695564 
	C61.305344,23.918203 62.832344,23.180437 62.880131,22.356838 
	C63.126846,18.105049 62.994678,13.831275 62.994678,8.669050 
	C61.286076,9.296410 60.201328,9.694704 58.823002,10.690033 
	C57.566624,12.299233 56.310246,13.908435 55.158787,15.383253 
	C52.853600,13.382348 51.394005,12.115416 49.939762,10.310171 
	C49.718369,10.045326 49.496979,9.780481 49.275585,9.515636 
	C49.135853,9.736248 48.996120,9.956860 48.287804,10.156574 
	C47.908558,10.161299 47.529308,10.166023 46.734905,9.632629 
	C46.489014,12.614140 45.900875,15.618884 46.101227,18.570099 
	C46.273811,21.112307 47.345009,23.593510 47.696064,26.861471 
	C47.802574,30.873018 47.909084,34.884563 47.884312,39.705624 
	C47.940205,40.233723 47.996098,40.761822 48.116589,41.682217 
	C48.116589,41.682217 47.936031,42.036430 47.281208,42.553280 
	C47.281208,46.938099 47.281208,51.322914 47.281208,55.667755 
	C52.771206,55.667755 57.674885,55.667755 63.276112,55.667755 
	C62.266682,47.481834 55.108902,53.279041 52.303123,50.046783 
	C52.303123,46.980408 52.303123,43.738945 52.303123,40.748283 
	C54.760159,40.066471 56.874584,39.479729 59.307655,38.132236 
	C59.182301,34.376678 59.056950,30.621119 58.792759,26.344458 
	C58.474266,26.256107 58.155777,26.167757 57.934280,26.108778 
z"/>
<path fill="#090505" opacity="1.000000" stroke="none" 
	d="
M47.150063,10.170748 
	C47.529308,10.166023 47.908558,10.161299 48.684849,10.384844 
	C49.081894,10.613113 49.451637,10.935485 49.451637,10.935485 
	C49.451637,10.935485 49.934406,10.848484 49.934406,10.848484 
	C51.394005,12.115416 52.853600,13.382348 55.158787,15.383253 
	C56.310246,13.908435 57.566624,12.299233 59.404602,10.349024 
	C60.631172,10.300665 61.827606,10.575744 61.837578,10.888626 
	C61.966866,14.946442 61.974022,19.011065 61.848568,23.068920 
	C61.837746,23.418945 60.667805,23.733135 60.036293,24.063972 
	C60.036293,24.063971 59.682312,23.878538 59.352638,23.499241 
	C59.022968,20.793356 59.022968,18.466770 59.022968,14.729181 
	C57.424908,16.510506 56.782757,17.226295 56.027851,18.234880 
	C54.642017,18.345419 53.368935,18.163164 51.957062,17.631208 
	C51.215549,17.290056 50.088322,17.268318 50.085831,17.311522 
	C49.991577,18.943914 50.214054,20.623669 49.907612,22.202669 
	C49.750622,23.011572 48.672546,23.641714 47.150063,25.277243 
	C47.150063,19.265787 47.150063,14.718267 47.150063,10.170748 
z"/>
<path fill="#090505" opacity="1.000000" stroke="none" 
	d="
M58.931595,26.865561 
	C59.056950,30.621119 59.182301,34.376678 58.693512,38.562111 
	C54.724777,38.960030 51.370186,38.928070 48.015594,38.896111 
	C47.909084,34.884563 47.802574,30.873018 48.306122,26.434584 
	C51.903938,26.069801 54.891697,26.131907 57.879452,26.194012 
	C57.879452,26.194012 57.934280,26.108778 57.990459,26.330776 
	C58.341625,26.657036 58.636608,26.761297 58.931595,26.865561 
M56.944992,34.099369 
	C56.944992,32.838833 56.944992,31.578299 56.944992,30.259138 
	C54.407227,30.259138 52.330944,30.259138 50.272602,30.259138 
	C49.933784,36.246635 51.229294,37.141788 56.944992,34.099369 
z"/>
<path fill="#0367D5" opacity="1.000000" stroke="none" 
	d="
M37.975410,29.844143 
	C38.315876,30.043091 38.656342,30.242041 38.799637,30.825359 
	C35.381649,32.839527 32.160831,34.469322 28.621849,35.956589 
	C27.156860,36.074486 25.996248,36.600819 24.865967,36.542217 
	C22.180616,36.402981 18.873062,39.228718 17.270124,35.012398 
	C18.089354,34.651409 18.596813,34.321236 19.314760,33.992687 
	C19.525248,33.994312 19.946140,34.003056 20.216328,33.903164 
	C20.991476,33.535507 21.496433,33.267738 22.250223,32.999893 
	C22.499054,32.999817 22.998110,33.000088 23.327667,33.000416 
	C24.096260,32.996288 24.535295,32.991829 25.310417,32.986332 
	C26.098051,31.991451 26.549601,30.997606 27.347801,29.997971 
	C28.156265,29.978148 28.618076,29.964119 29.480923,29.975780 
	C32.579773,29.949030 35.277592,29.896585 37.975410,29.844143 
z"/>
<path fill="#FFFFFF" opacity="1.000000" stroke="none" 
	d="
M37.907890,29.441933 
	C35.277592,29.896585 32.579773,29.949030 29.327503,29.658512 
	C27.854424,29.262674 26.935801,29.209799 25.631832,29.086432 
	C23.483334,29.636930 21.720181,30.257923 19.575344,30.928648 
	C18.167526,30.968380 17.141394,30.958380 16.055752,30.570593 
	C14.272198,29.133535 12.548150,28.074263 10.832531,26.724403 
	C11.426522,25.983711 12.012085,25.533607 12.755349,24.834543 
	C12.896074,24.390463 12.879097,24.195345 12.939510,23.686775 
	C13.037220,22.943649 13.057539,22.513973 13.312756,22.037689 
	C13.547652,21.991081 14.004729,21.844545 14.338277,21.915518 
	C15.120206,21.931501 15.568588,21.876513 16.408289,21.883045 
	C19.207098,21.292244 21.614588,20.639925 24.032228,20.415504 
	C27.343664,21.268127 30.644951,21.692852 33.975201,22.441368 
	C34.306442,23.502497 34.608719,24.239832 34.943886,25.224815 
	C34.976776,25.472466 35.015072,25.968176 35.015072,25.968176 
	C29.260271,20.464739 22.172775,23.825373 15.696812,23.259527 
	C15.125526,23.209608 14.333657,25.684204 13.108644,27.997810 
	C20.650606,27.997810 26.739136,27.924406 32.823795,28.045555 
	C34.501919,28.078970 36.168491,28.692421 37.907890,29.441933 
z"/>
<path fill="#090505" opacity="1.000000" stroke="none" 
	d="
M47.936031,42.036430 
	C47.936031,42.036430 48.116589,41.682217 48.505424,41.352264 
	C49.595848,41.787468 50.826038,42.503574 50.902412,43.326740 
	C51.157368,46.074612 50.999016,48.860828 50.999016,52.001610 
	C54.167091,52.001610 56.947376,51.880642 59.704899,52.077877 
	C60.496464,52.134495 61.222298,53.110195 61.978271,53.664490 
	C61.279049,54.108982 60.591507,54.914822 59.878662,54.937862 
	C55.977051,55.063984 52.069233,54.997963 47.936031,54.997963 
	C47.936031,50.278091 47.936031,46.157261 47.936031,42.036430 
z"/>
<path fill="#FFFFFF" opacity="1.000000" stroke="none" 
	d="
M47.608620,42.294853 
	C47.936031,46.157261 47.936031,50.278091 47.936031,54.997963 
	C52.069233,54.997963 55.977051,55.063984 59.878662,54.937862 
	C60.591507,54.914822 61.279049,54.108982 61.978271,53.664490 
	C61.222298,53.110195 60.496464,52.134495 59.704899,52.077877 
	C56.947376,51.880642 54.167091,52.001610 50.999016,52.001610 
	C50.999016,48.860828 51.157368,46.074612 50.902412,43.326740 
	C50.826038,42.503574 49.595848,41.787468 48.473129,41.156116 
	C47.996098,40.761822 47.940205,40.233723 47.949951,39.300869 
	C51.370186,38.928070 54.724777,38.960030 58.534191,38.942490 
	C56.874584,39.479729 54.760159,40.066471 52.303123,40.748283 
	C52.303123,43.738945 52.303123,46.980408 52.303123,50.046783 
	C55.108902,53.279041 62.266682,47.481834 63.276112,55.667755 
	C57.674885,55.667755 52.771206,55.667755 47.281208,55.667755 
	C47.281208,51.322914 47.281208,46.938099 47.608620,42.294853 
z"/>
<path fill="#FFFFFF" opacity="1.000000" stroke="none" 
	d="
M16.958353,35.043213 
	C18.873062,39.228718 22.180616,36.402981 24.865967,36.542217 
	C25.996248,36.600819 27.156860,36.074486 28.803185,36.287827 
	C30.926851,37.145100 32.551018,37.528603 34.101921,38.318184 
	C34.073166,39.811863 34.117672,40.899460 34.094509,42.299492 
	C34.005192,43.037483 33.983547,43.463043 33.550232,43.935593 
	C31.758999,44.043514 30.379431,44.104450 28.575678,44.091900 
	C26.433393,44.066818 24.715294,44.115215 22.557537,44.088356 
	C19.740461,44.061863 17.363041,44.110630 14.670471,44.084038 
	C13.847311,43.698788 13.339300,43.388897 12.901263,42.752068 
	C12.639626,41.637146 12.308013,40.849159 11.976400,40.061169 
	C17.754381,45.507542 24.833677,42.192135 31.317934,42.737370 
	C31.884552,42.785015 32.663986,40.301723 33.860287,38.003098 
	C25.995041,38.003098 19.569122,38.055832 13.145277,37.963818 
	C11.650110,37.942402 10.161997,37.428558 9.228298,36.916370 
	C10.473529,36.644142 11.161098,36.596832 12.130048,36.677872 
	C12.601315,36.475044 12.791203,36.143871 13.316057,35.784019 
	C14.419240,35.512836 15.187457,35.270329 16.206940,35.008659 
	C16.624920,35.007401 16.791636,35.025307 16.958353,35.043213 
z"/>
<path fill="#0274E1" opacity="1.000000" stroke="none" 
	d="
M33.946236,22.117577 
	C30.644951,21.692852 27.343664,21.268127 24.198883,20.265543 
	C24.585642,19.485888 24.750948,19.240364 25.101120,18.880295 
	C25.573067,18.554104 25.795197,18.298727 26.342506,17.995777 
	C27.789398,17.324930 28.911106,16.701660 30.372620,16.052113 
	C31.511705,15.703352 32.310986,15.380870 33.362076,15.015192 
	C34.039539,14.726305 34.465202,14.480615 34.890862,14.234924 
	C35.355515,14.203494 35.820168,14.172064 36.633278,14.592581 
	C36.987328,16.034721 36.992924,17.024914 36.800415,18.282181 
	C35.716957,19.738697 34.831596,20.928137 33.946236,22.117577 
z"/>
<path fill="#0484DD" opacity="1.000000" stroke="none" 
	d="
M10.824102,27.014992 
	C12.548150,28.074263 14.272198,29.133535 15.690926,30.619095 
	C12.811123,32.426411 10.236638,33.807438 7.662154,35.188465 
	C4.685481,34.273201 3.782506,32.362850 5.390727,29.014658 
	C7.515829,28.042223 9.169966,27.528606 10.824102,27.014992 
z"/>
<path fill="#0347AF" opacity="1.000000" stroke="none" 
	d="
M34.175182,37.912106 
	C32.551018,37.528603 30.926851,37.145100 29.121349,36.430359 
	C32.160831,34.469322 35.381649,32.839527 38.955627,31.080696 
	C40.212658,32.080147 41.116531,33.208637 41.836628,34.791843 
	C41.714157,36.101486 41.775463,36.956409 41.411503,37.845985 
	C38.988766,37.917080 36.991291,37.953522 34.789223,37.970352 
	C34.584629,37.950737 34.175182,37.912106 34.175182,37.912106 
z"/>
<path fill="#3F273B" opacity="1.000000" stroke="none" 
	d="
M31.120703,50.049950 
	C30.237520,51.356499 29.393156,53.753681 28.464649,53.786724 
	C23.639105,53.958477 18.792116,53.527630 13.878274,52.610062 
	C13.886580,51.631405 13.969205,51.349339 14.417109,51.055946 
	C15.515018,51.053730 16.247646,51.062836 17.258873,51.334167 
	C19.686031,51.067223 21.834591,50.538059 24.358833,50.004524 
	C25.484814,49.989120 26.235113,49.978088 27.397993,49.978359 
	C28.913950,50.009758 30.017326,50.029854 31.120703,50.049950 
z"/>
<path fill="#B6B6B6" opacity="1.000000" stroke="none" 
	d="
M52.095856,17.980907 
	C53.368935,18.163164 54.642017,18.345419 56.405441,18.339264 
	C57.245377,20.216888 57.594971,22.282925 57.944565,24.348961 
	C57.944565,24.348961 57.988811,24.407904 57.598175,24.630564 
	C55.290646,24.853224 53.373760,24.853224 50.581753,24.853224 
	C51.176891,22.151964 51.636372,20.066435 52.095856,17.980907 
z"/>
<path fill="#FFFFFF" opacity="1.000000" stroke="none" 
	d="
M51.957062,17.631208 
	C51.636372,20.066435 51.176891,22.151964 50.581753,24.853224 
	C53.373760,24.853224 55.290646,24.853224 57.617493,24.661945 
	C58.078442,24.764271 58.129436,25.057877 58.029945,25.772747 
	C54.891697,26.131907 51.903938,26.069801 48.467541,26.054691 
	C47.345009,23.593510 46.273811,21.112307 46.101227,18.570099 
	C45.900875,15.618884 46.489014,12.614140 46.942482,9.901689 
	C47.150063,14.718267 47.150063,19.265787 47.150063,25.277243 
	C48.672546,23.641714 49.750622,23.011572 49.907612,22.202669 
	C50.214054,20.623669 49.991577,18.943914 50.085831,17.311522 
	C50.088322,17.268318 51.215549,17.290056 51.957062,17.631208 
z"/>
<path fill="#0273CE" opacity="1.000000" stroke="none" 
	d="
M7.809061,35.399685 
	C10.236638,33.807438 12.811123,32.426411 15.750433,30.996880 
	C17.141394,30.958380 18.167526,30.968380 19.588741,31.210529 
	C19.989544,31.630724 19.995266,31.818775 19.992199,32.339462 
	C19.970984,33.115753 19.958563,33.559402 19.946140,34.003056 
	C19.946140,34.003056 19.525248,33.994312 19.052448,33.896191 
	C17.718298,33.863602 16.856947,33.929138 15.751520,34.010658 
	C15.238213,34.164757 14.968981,34.302868 14.699749,34.440975 
	C15.093054,34.601471 15.486360,34.761967 15.890311,34.954830 
	C15.900957,34.987198 15.955674,35.027824 15.955674,35.027824 
	C15.187457,35.270329 14.419240,35.512836 13.201805,35.595261 
	C12.451280,35.806625 12.149974,36.178074 11.848668,36.549522 
	C11.161098,36.596832 10.473529,36.644142 9.442675,36.632553 
	C8.718248,36.252735 8.337108,35.931820 7.809061,35.399685 
z"/>
<path fill="#016ADE" opacity="1.000000" stroke="none" 
	d="
M33.975201,22.441370 
	C34.831596,20.928137 35.716957,19.738697 37.091423,18.139172 
	C38.108749,17.057627 38.636971,16.386166 39.165192,15.714705 
	C39.667286,16.005199 40.169376,16.295692 40.880173,17.027458 
	C41.172253,17.753910 41.339252,17.976315 41.589870,18.135942 
	C41.589870,18.135942 41.632973,18.495087 41.413963,18.865078 
	C40.378910,20.113737 39.562866,20.992401 38.386856,21.873861 
	C36.985012,22.634432 35.943134,23.392208 34.923759,24.347191 
	C34.946266,24.544397 35.045799,24.928688 35.012817,24.942802 
	C34.979832,24.956919 34.910995,24.977165 34.910995,24.977165 
	C34.608719,24.239832 34.306442,23.502497 33.975201,22.441370 
z"/>
<path fill="#0154A1" opacity="1.000000" stroke="none" 
	d="
M7.770597,50.603096 
	C7.176208,50.013851 6.581820,49.424606 5.974622,48.247749 
	C5.977130,47.437595 5.992450,47.215046 6.276510,46.798298 
	C7.703372,45.412838 8.861494,44.221577 10.358450,43.029396 
	C11.148278,43.056686 11.599271,43.084892 12.035511,43.496941 
	C12.010358,44.915356 11.999958,45.949928 11.643261,47.000751 
	C10.511310,47.654354 9.725654,48.291706 8.902467,49.144619 
	C8.864936,49.360176 8.762409,49.785606 8.569224,49.884239 
	C8.142351,50.158497 7.940537,50.365238 7.770597,50.603096 
z"/>
<path fill="#0C4CA1" opacity="1.000000" stroke="none" 
	d="
M20.033642,13.116981 
	C20.778513,13.086632 21.523384,13.056284 22.640430,13.427824 
	C23.059698,14.260874 23.106787,14.692036 23.128309,15.111284 
	C23.102743,15.099372 23.071144,15.052642 22.891411,15.129029 
	C22.836241,15.486161 22.960802,15.766907 23.086205,16.309685 
	C23.081825,16.746330 23.076605,16.920940 22.771318,17.100367 
	C22.018143,17.433601 21.565033,17.762024 20.807318,18.198051 
	C19.690338,18.561760 18.877964,18.817862 17.799782,19.047626 
	C17.356482,19.013050 17.178988,19.004810 16.978874,18.699875 
	C16.637474,17.935560 16.318695,17.467937 16.001438,16.731852 
	C16.015537,16.284851 16.028111,16.106314 16.205158,15.807571 
	C16.585545,15.515981 16.757944,15.308450 17.179001,14.950289 
	C18.325327,14.262862 19.179485,13.689921 20.033642,13.116981 
M19.348768,16.664440 
	C19.301071,16.332327 19.253374,16.000216 19.205675,15.668102 
	C19.111071,16.021049 19.016466,16.373995 19.348768,16.664440 
z"/>
<path fill="#27325E" opacity="1.000000" stroke="none" 
	d="
M42.827087,39.020576 
	C42.764034,41.193851 42.700981,43.367123 42.065308,45.763794 
	C41.492687,45.987190 41.011868,45.978062 41.010551,45.770462 
	C41.009232,45.562866 41.010223,45.147045 41.160515,44.949928 
	C40.538952,44.171776 39.767101,43.590736 38.997520,42.609509 
	C38.998592,41.143677 38.997391,40.078033 39.379486,39.009666 
	C40.784218,39.011486 41.805653,39.016033 42.827087,39.020576 
z"/>
<path fill="#FFFFFF" opacity="1.000000" stroke="none" 
	d="
M60.248486,24.379768 
	C60.667805,23.733135 61.837746,23.418945 61.848568,23.068920 
	C61.974022,19.011065 61.966866,14.946442 61.837578,10.888626 
	C61.827606,10.575744 60.631172,10.300665 59.551392,10.050507 
	C60.201328,9.694704 61.286076,9.296410 62.994678,8.669050 
	C62.994678,13.831275 63.126846,18.105049 62.880131,22.356838 
	C62.832344,23.180437 61.305344,23.918203 60.248486,24.379768 
z"/>
<path fill="#0256B2" opacity="1.000000" stroke="none" 
	d="
M10.019615,43.030315 
	C8.861494,44.221577 7.703372,45.412838 6.057953,46.807014 
	C5.570655,47.009930 5.136321,47.060097 5.136321,47.060097 
	C4.778418,45.943451 4.420515,44.826805 4.412549,43.201744 
	C5.838001,42.460903 6.913516,42.228477 8.162245,42.241104 
	C8.896844,42.667545 9.458229,42.848930 10.019615,43.030315 
z"/>
<path fill="#273559" opacity="1.000000" stroke="none" 
	d="
M41.011868,45.978062 
	C41.011868,45.978062 41.492687,45.987190 41.733109,45.989326 
	C41.352070,47.279282 40.730610,48.567108 39.461582,49.931374 
	C38.209129,49.672417 37.604248,49.337013 36.999603,48.751122 
	C36.999813,48.333900 36.999775,48.167175 37.036591,47.691475 
	C37.712082,46.608299 38.350719,45.834095 39.247501,45.068153 
	C39.677532,45.086636 39.849415,45.096851 40.134773,45.304100 
	C40.450577,45.743637 40.705116,45.902615 41.011868,45.978062 
z"/>
<path fill="#29253D" opacity="1.000000" stroke="none" 
	d="
M31.312874,50.033211 
	C30.017326,50.029854 28.913950,50.009758 27.402493,49.612572 
	C26.997026,48.503139 26.999645,47.770802 27.332018,47.025169 
	C28.101627,46.999474 28.541485,46.987064 29.236061,46.998127 
	C29.661142,47.024250 29.831499,47.026897 30.334824,47.028259 
	C31.111135,47.045238 31.554483,47.063499 32.174011,47.311489 
	C32.899994,47.694374 33.449799,47.847530 33.999851,48.250744 
	C34.000099,48.667511 34.000099,48.834217 33.817791,49.250996 
	C33.053757,49.679699 32.472031,49.858322 31.890303,50.036949 
	C31.890303,50.036949 31.505047,50.016476 31.312874,50.033211 
z"/>
<path fill="#114379" opacity="1.000000" stroke="none" 
	d="
M10.832531,26.724403 
	C9.169966,27.528606 7.515829,28.042223 5.599101,28.721054 
	C4.938755,28.473051 4.541001,28.059835 4.483983,27.294285 
	C5.898280,26.304707 6.971840,25.667458 8.368246,25.020515 
	C9.122099,25.003220 9.553106,24.995617 10.311322,25.000441 
	C11.291570,25.036413 11.944609,25.059959 12.597648,25.083506 
	C12.012085,25.533607 11.426522,25.983711 10.832531,26.724403 
z"/>
<path fill="#321829" opacity="1.000000" stroke="none" 
	d="
M31.937733,50.397228 
	C32.472031,49.858322 33.053757,49.679699 34.192753,49.250938 
	C35.499802,49.001076 36.249584,49.001343 36.999363,49.001610 
	C37.604248,49.337013 38.209129,49.672417 39.173805,50.044483 
	C39.063690,50.474430 38.593792,50.867706 37.660431,51.559856 
	C36.826134,51.958904 36.455292,52.059082 36.084450,52.159264 
	C34.998180,50.872707 32.053894,55.019745 31.937733,50.397228 
z"/>
<path fill="#1B52AA" opacity="1.000000" stroke="none" 
	d="
M4.504507,21.048571 
	C5.484220,19.121815 6.463933,17.195059 8.041078,15.276217 
	C9.085298,15.839407 9.532086,16.394682 9.700688,17.105976 
	C8.279814,18.492809 7.137128,19.723627 5.621008,20.962933 
	C4.999885,20.997139 4.752196,21.022856 4.504507,21.048571 
z"/>
<path fill="#0468C7" opacity="1.000000" stroke="none" 
	d="
M10.358450,43.029396 
	C9.458229,42.848930 8.896844,42.667545 8.165241,41.937901 
	C8.000410,40.985390 8.005799,40.581139 8.011188,40.176884 
	C9.067889,40.122856 10.124592,40.068832 11.578847,40.037987 
	C12.308013,40.849159 12.639626,41.637146 12.705471,42.748810 
	C12.439705,43.072483 12.050264,43.113102 12.050264,43.113102 
	C11.599271,43.084892 11.148278,43.056686 10.358450,43.029396 
z"/>
<path fill="#066BB9" opacity="1.000000" stroke="none" 
	d="
M9.978876,16.949957 
	C9.532086,16.394682 9.085298,15.839407 8.391388,15.174215 
	C9.858791,14.436108 11.573317,13.807917 13.664440,13.428200 
	C14.041039,13.676674 14.100300,14.162923 14.081536,14.368628 
	C14.062773,14.574333 13.993281,14.985043 13.703492,15.095682 
	C12.608538,15.803576 11.803371,16.400833 10.749045,16.998568 
	C10.499885,16.999046 10.000511,17.003330 9.996881,16.990061 
	C9.993252,16.976791 9.978876,16.949957 9.978876,16.949957 
z"/>
<path fill="#FFFFFF" opacity="1.000000" stroke="none" 
	d="
M58.293457,24.291555 
	C57.594971,22.282925 57.245377,20.216888 56.518196,18.046471 
	C56.782757,17.226295 57.424908,16.510506 59.022968,14.729181 
	C59.022968,18.466770 59.022968,20.793356 59.155800,23.533525 
	C59.073204,24.042789 58.857773,24.138470 58.293457,24.291555 
z"/>
<path fill="#235893" opacity="1.000000" stroke="none" 
	d="
M8.045401,25.030209 
	C6.971840,25.667458 5.898280,26.304707 4.508656,26.984779 
	C4.159211,25.979055 4.125830,24.930504 4.453737,23.466476 
	C5.200824,23.026239 5.586622,23.001476 6.088537,23.197491 
	C6.408407,23.695126 6.673611,23.887074 7.116129,24.219051 
	C7.503128,24.639399 7.774264,24.834805 8.045401,25.030209 
z"/>
<path fill="#0A407F" opacity="1.000000" stroke="none" 
	d="
M27.030603,13.144965 
	C28.617771,13.172010 30.204937,13.199057 31.803503,13.636204 
	C31.528152,14.361916 31.241404,14.677527 30.742496,14.995464 
	C30.530340,14.997788 30.104847,14.997163 29.709724,14.986995 
	C28.522636,14.963753 27.730673,14.950678 26.952066,14.638504 
	C26.987150,13.941257 27.008877,13.543111 27.030603,13.144965 
z"/>
<path fill="#313A77" opacity="1.000000" stroke="none" 
	d="
M42.873825,38.752586 
	C41.805653,39.016033 40.784218,39.011486 39.005417,39.005669 
	C37.499741,39.007011 36.751434,39.009621 35.784187,38.897545 
	C35.293816,38.576916 35.103336,38.312618 34.993816,37.989967 
	C36.991291,37.953522 38.988766,37.917080 41.663345,37.900078 
	C42.510380,37.928047 42.680309,37.936569 42.850239,37.945091 
	C42.873680,38.124928 42.897125,38.304760 42.873825,38.752586 
z"/>
<path fill="#0479C6" opacity="1.000000" stroke="none" 
	d="
M7.648452,40.118500 
	C8.005799,40.581139 8.000410,40.985390 7.992026,41.692848 
	C6.913516,42.228477 5.838001,42.460903 4.463760,42.846302 
	C5.205262,42.019558 6.245490,41.039837 7.648452,40.118500 
z"/>
<path fill="#0856A6" opacity="1.000000" stroke="none" 
	d="
M26.629383,13.084144 
	C27.008877,13.543111 26.987150,13.941257 26.573450,14.664064 
	C25.172276,15.033548 24.163076,15.078373 23.153877,15.123198 
	C23.106787,14.692036 23.059698,14.260874 23.006042,13.505277 
	C24.075708,13.128335 25.151936,13.075829 26.629383,13.084144 
z"/>
<path fill="#147AEA" opacity="1.000000" stroke="none" 
	d="
M39.019226,15.479532 
	C38.636971,16.386166 38.108749,17.057627 37.289524,17.872097 
	C36.992924,17.024914 36.987328,16.034721 36.973579,14.675108 
	C37.601368,14.618577 38.237316,14.931467 39.019226,15.479532 
z"/>
<path fill="#2158C5" opacity="1.000000" stroke="none" 
	d="
M42.841488,23.992355 
	C41.468559,24.648251 40.095634,25.304148 38.357979,25.690784 
	C37.993248,25.421526 37.989597,24.991650 37.994747,24.995623 
	C37.999897,24.999596 37.993961,24.999550 38.331841,24.998398 
	C39.445408,24.665400 40.221096,24.333551 41.304302,23.999783 
	C42.021713,23.996025 42.431599,23.994190 42.841488,23.992355 
z"/>
<path fill="#657CD3" opacity="1.000000" stroke="none" 
	d="
M38.746826,21.871067 
	C39.562866,20.992401 40.378910,20.113737 41.423477,19.045689 
	C41.794842,19.277981 41.937679,19.699652 41.996857,20.726395 
	C41.619576,21.556454 41.325962,21.781441 40.651684,21.996471 
	C39.762959,21.948034 39.254890,21.909552 38.746826,21.871067 
z"/>
<path fill="#0D3F96" opacity="1.000000" stroke="none" 
	d="
M42.914154,37.617188 
	C42.680309,37.936569 42.510380,37.928047 42.088608,37.865429 
	C41.775463,36.956409 41.714157,36.101486 41.904537,35.112816 
	C42.430172,35.749138 42.704121,36.519207 42.914154,37.617188 
z"/>
<path fill="#1750B4" opacity="1.000000" stroke="none" 
	d="
M41.032345,22.006426 
	C41.325962,21.781441 41.619576,21.556454 42.003742,21.061148 
	C42.384727,21.628651 42.675159,22.466475 42.903542,23.648327 
	C42.431599,23.994190 42.021713,23.996025 41.305443,23.997101 
	C40.999065,23.996342 40.995651,23.986660 40.987617,23.709709 
	C40.967724,23.248428 40.955868,23.064096 40.959625,22.660774 
	C40.975239,22.441786 41.032345,22.006426 41.032345,22.006426 
z"/>
<path fill="#493451" opacity="1.000000" stroke="none" 
	d="
M14.051829,51.067272 
	C13.969205,51.349339 13.886580,51.631405 13.601576,52.308395 
	C12.094674,52.304146 10.790151,51.904968 9.580741,51.255089 
	C10.132037,50.991112 10.588220,50.977833 11.363711,50.966618 
	C12.109183,50.962528 12.535347,50.956375 13.234564,50.975075 
	C13.689021,51.022377 13.870425,51.044823 14.051829,51.067272 
z"/>
<path fill="#4770B1" opacity="1.000000" stroke="none" 
	d="
M5.972421,22.976715 
	C5.586622,23.001476 5.200824,23.026239 4.527164,23.078047 
	C4.226717,22.564781 4.214133,22.024469 4.353028,21.266365 
	C4.752196,21.022856 4.999885,20.997139 5.622570,20.979221 
	C5.997566,20.987020 6.001863,21.017643 6.003309,21.337566 
	C5.993579,22.083637 5.982403,22.509789 5.968560,22.947033 
	C5.965894,22.958128 5.972421,22.976715 5.972421,22.976715 
z"/>
<path fill="#0F3061" opacity="1.000000" stroke="none" 
	d="
M30.954655,14.993138 
	C31.241404,14.677527 31.528152,14.361916 32.103580,13.896811 
	C33.021538,13.844831 33.650818,13.942344 34.585480,14.137390 
	C34.465202,14.480615 34.039539,14.726305 33.002842,14.996105 
	C31.912754,15.011189 31.433702,15.002163 30.954655,14.993138 
z"/>
<path fill="#4C73B7" opacity="1.000000" stroke="none" 
	d="
M19.645536,13.071245 
	C19.179485,13.689921 18.325327,14.262862 17.174500,14.977780 
	C16.877829,15.119758 16.825956,15.094772 16.884403,14.788962 
	C16.950096,14.276889 16.957344,14.070626 16.958088,13.692741 
	C16.951586,13.521119 16.920807,13.179011 16.920807,13.179012 
	C17.699682,13.127844 18.478556,13.076675 19.645536,13.071245 
z"/>
<path fill="#EAE9E9" opacity="1.000000" stroke="none" 
	d="
M36.254189,52.384708 
	C36.455292,52.059082 36.826134,51.958904 37.482025,51.814392 
	C37.892334,52.109753 38.017593,52.449448 38.142849,52.789139 
	C37.569874,52.729477 36.996899,52.669815 36.254189,52.384708 
z"/>
<path fill="#46315F" opacity="1.000000" stroke="none" 
	d="
M11.044401,50.964554 
	C10.588220,50.977833 10.132037,50.991112 9.333857,51.009544 
	C8.777034,50.982391 8.562209,50.950081 8.058991,50.760433 
	C7.940537,50.365238 8.142351,50.158497 8.896132,49.968746 
	C9.958949,50.291267 10.501676,50.627911 11.044401,50.964554 
z"/>
<path fill="#1164B6" opacity="1.000000" stroke="none" 
	d="
M16.558287,13.113711 
	C16.920807,13.179011 16.951586,13.521119 16.599941,13.736065 
	C15.532296,14.021648 14.816298,14.092286 14.100300,14.162923 
	C14.100300,14.162923 14.041039,13.676674 14.021427,13.433208 
	C14.733132,13.142632 15.464450,13.095522 16.558287,13.113711 
z"/>
<path fill="#1750B4" opacity="1.000000" stroke="none" 
	d="
M37.989597,24.991650 
	C37.989597,24.991650 37.993248,25.421526 37.989399,25.635563 
	C37.243843,25.899290 36.502132,25.948980 35.387749,25.983421 
	C35.015072,25.968176 34.976776,25.472466 34.943886,25.224815 
	C34.910995,24.977165 34.979832,24.956919 35.380615,24.964935 
	C36.517467,24.979185 37.253532,24.985418 37.989597,24.991650 
z"/>
<path fill="#FFFFFF" opacity="1.000000" stroke="none" 
	d="
M49.937084,10.579328 
	C49.934406,10.848484 49.451637,10.935485 49.451637,10.935485 
	C49.451637,10.935485 49.081894,10.613113 48.969139,10.395292 
	C48.996120,9.956860 49.135853,9.736248 49.275585,9.515636 
	C49.496979,9.780481 49.718369,10.045326 49.937084,10.579328 
z"/>
<path fill="#024F92" opacity="1.000000" stroke="none" 
	d="
M5.153293,47.323738 
	C5.136321,47.060097 5.570655,47.009930 5.789213,47.001213 
	C5.992450,47.215046 5.977130,47.437595 5.923149,47.993687 
	C5.646413,48.080616 5.408339,47.834000 5.153293,47.323738 
z"/>
<path fill="#657CD3" opacity="1.000000" stroke="none" 
	d="
M41.628780,17.907036 
	C41.339252,17.976315 41.172253,17.753910 41.060570,17.258835 
	C41.360210,17.141472 41.572018,17.351202 41.628780,17.907036 
z"/>
<path fill="#FFFFFF" opacity="1.000000" stroke="none" 
	d="
M58.862175,26.605009 
	C58.636608,26.761297 58.341625,26.657036 57.941963,26.316090 
	C58.155777,26.167757 58.474266,26.256107 58.862175,26.605009 
z"/>
<path fill="#B3B3B3" opacity="1.000000" stroke="none" 
	d="
M56.764755,34.494308 
	C51.229294,37.141788 49.933784,36.246635 50.272602,30.259138 
	C52.330944,30.259138 54.407227,30.259138 56.944992,30.259138 
	C56.944992,31.578299 56.944992,32.838833 56.764755,34.494308 
z"/>
<path fill="#0464CA" opacity="1.000000" stroke="none" 
	d="
M20.000990,32.006828 
	C19.995266,31.818775 19.989544,31.630724 19.970425,31.160793 
	C21.720181,30.257923 23.483334,29.636930 25.749317,29.276108 
	C26.456158,29.765251 26.705824,29.921078 27.001150,30.003763 
	C26.549601,30.997606 26.098051,31.991451 25.218189,32.751221 
	C24.191950,32.345009 23.594023,32.172871 22.747660,32.000519 
	C22.499222,32.000305 22.002344,32.000172 21.668781,32.001343 
	C20.890474,32.003952 20.445732,32.005390 20.000990,32.006828 
z"/>
<path fill="#1D5EC3" opacity="1.000000" stroke="none" 
	d="
M15.995596,33.994671 
	C16.856947,33.929138 17.718298,33.863602 18.841961,33.894566 
	C18.596813,34.321236 18.089354,34.651409 17.270124,35.012398 
	C16.791636,35.025307 16.624920,35.007401 16.206940,35.008659 
	C15.955674,35.027824 15.900957,34.987198 15.928883,34.724224 
	C15.956808,34.461250 15.995596,33.994671 15.995596,33.994671 
z"/>
<path fill="#1D5EC3" opacity="1.000000" stroke="none" 
	d="
M19.992199,32.339462 
	C20.445732,32.005390 20.890474,32.003952 21.668158,32.251251 
	C22.001099,32.499985 22.001392,32.999973 22.001392,32.999973 
	C21.496433,33.267738 20.991476,33.535507 20.216330,33.903164 
	C19.958563,33.559402 19.970984,33.115753 19.992199,32.339462 
z"/>
<path fill="#2158C5" opacity="1.000000" stroke="none" 
	d="
M22.996098,32.000732 
	C23.594023,32.172871 24.191950,32.345009 24.882103,32.752258 
	C24.535295,32.991829 24.096260,32.996288 23.327843,32.750557 
	C22.998463,32.500366 22.996098,32.000732 22.996098,32.000732 
z"/>
<path fill="#1256BA" opacity="1.000000" stroke="none" 
	d="
M27.347801,29.997971 
	C26.705824,29.921078 26.456158,29.765251 26.134663,29.346603 
	C26.935801,29.209799 27.854424,29.262674 28.926468,29.632820 
	C28.618076,29.964119 28.156265,29.978148 27.347801,29.997971 
z"/>
<path fill="#0273CE" opacity="1.000000" stroke="none" 
	d="
M22.747660,32.000519 
	C22.996098,32.000732 22.998463,32.500366 22.998287,32.750229 
	C22.998110,33.000088 22.499054,32.999817 22.250223,32.999893 
	C22.001392,32.999973 22.001099,32.499985 22.001720,32.250076 
	C22.002344,32.000172 22.499222,32.000305 22.747660,32.000519 
z"/>
<path fill="#293967" opacity="1.000000" stroke="none" 
	d="
M18.065590,19.073965 
	C18.877964,18.817862 19.690338,18.561760 21.104336,18.322680 
	C22.754408,18.543507 23.802856,18.747309 24.851305,18.951111 
	C24.750948,19.240364 24.585642,19.485888 24.188732,19.837643 
	C21.614588,20.639925 19.207098,21.292244 16.401402,21.587872 
	C15.995485,20.835999 15.987775,20.440817 16.278259,20.000738 
	C17.072832,19.661880 17.569212,19.367922 18.065590,19.073965 
z"/>
<path fill="#35538B" opacity="1.000000" stroke="none" 
	d="
M8.368246,25.020515 
	C7.774264,24.834805 7.503128,24.639399 7.126284,23.969006 
	C7.026360,23.327232 7.032144,23.160450 7.262827,22.994198 
	C7.487727,22.994730 7.937520,22.997478 8.171444,22.897453 
	C8.603590,22.529463 8.801813,22.261497 8.996788,21.993752 
	C8.993541,21.993967 8.990419,21.980503 9.385149,21.988962 
	C10.830874,21.965773 11.881872,21.934124 12.967297,21.949383 
	C13.001723,21.996290 13.077859,22.084299 13.077859,22.084299 
	C13.057539,22.513973 13.037220,22.943649 12.614922,23.683350 
	C11.470000,24.324923 10.727057,24.656469 9.984114,24.988014 
	C9.553106,24.995617 9.122099,25.003220 8.368246,25.020515 
z"/>
<path fill="#394477" opacity="1.000000" stroke="none" 
	d="
M15.980065,20.045637 
	C15.987775,20.440817 15.995485,20.835999 16.010082,21.526352 
	C15.568588,21.876513 15.120206,21.931501 14.331504,21.705845 
	C13.991183,21.425200 13.967693,21.004129 13.984191,20.771032 
	C14.000689,20.537935 14.005586,20.070885 14.334770,20.062202 
	C15.102658,20.050892 15.541362,20.048265 15.980065,20.045637 
z"/>
<path fill="#264373" opacity="1.000000" stroke="none" 
	d="
M10.311322,25.000441 
	C10.727057,24.656469 11.470000,24.324923 12.537532,23.996803 
	C12.879097,24.195345 12.896074,24.390463 12.755349,24.834543 
	C11.944609,25.059959 11.291570,25.036413 10.311322,25.000441 
z"/>
<path fill="#35538B" opacity="1.000000" stroke="none" 
	d="
M13.967693,21.004129 
	C13.967693,21.004129 13.991183,21.425200 13.997956,21.634872 
	C14.004729,21.844545 13.547652,21.991081 13.312756,22.037689 
	C13.077859,22.084299 13.001723,21.996290 13.095819,21.753353 
	C13.400165,21.266369 13.659424,21.097607 13.967693,21.004129 
z"/>
<path fill="#19447F" opacity="1.000000" stroke="none" 
	d="
M14.985620,44.159393 
	C17.363041,44.110630 19.740461,44.061863 22.555292,44.307892 
	C22.992702,44.602684 22.985250,45.041718 22.615650,45.037739 
	C21.507229,45.037682 20.768408,45.041599 19.699585,45.171291 
	C17.581310,45.866291 15.793037,46.435513 13.751068,47.002792 
	C13.328248,46.998806 13.159125,46.996761 13.113015,46.731468 
	C13.819226,45.698612 14.402424,44.929001 14.985620,44.159393 
z"/>
<path fill="#094980" opacity="1.000000" stroke="none" 
	d="
M22.985250,45.041718 
	C22.985250,45.041718 22.992702,44.602684 22.994947,44.383148 
	C24.715294,44.115215 26.433393,44.066818 28.575741,44.396450 
	C29.000002,45.180717 29.000015,45.586956 28.993492,46.238522 
	C28.986958,46.483852 28.981340,46.974655 28.981340,46.974655 
	C28.541485,46.987064 28.101627,46.999474 27.018015,46.966602 
	C25.583452,46.615002 24.792645,46.308681 23.793098,45.886768 
	C23.318012,45.582760 23.118309,45.339603 22.985250,45.041718 
z"/>
<path fill="#4A4D70" opacity="1.000000" stroke="none" 
	d="
M40.021294,45.107071 
	C39.849415,45.096851 39.677532,45.086636 38.927277,45.041679 
	C37.920311,44.994530 37.491714,44.982109 36.840431,44.719921 
	C35.753605,44.383900 34.889473,44.297646 33.993164,44.133904 
	C33.960987,44.056412 33.961903,43.888607 33.961899,43.888607 
	C33.983547,43.463043 34.005192,43.037483 34.304169,42.305538 
	C34.581501,41.999157 35.001007,42.002850 35.240402,42.264992 
	C36.651611,42.687988 37.823429,42.848846 38.995247,43.009701 
	C39.767101,43.590736 40.538952,44.171776 40.913956,44.918785 
	C40.517109,45.084759 40.021294,45.107071 40.021294,45.107071 
z"/>
<path fill="#134273" opacity="1.000000" stroke="none" 
	d="
M29.000029,45.993191 
	C29.000015,45.586956 29.000002,45.180717 28.999924,44.469933 
	C30.379431,44.104450 31.758999,44.043514 33.550236,43.935593 
	C33.961903,43.888607 33.960987,44.056412 33.986191,44.328415 
	C34.011398,44.600414 34.003662,44.992260 33.678093,45.041233 
	C32.900963,45.754059 32.449394,46.417908 31.997829,47.081760 
	C31.554483,47.063499 31.111135,47.045238 30.226688,46.804054 
	C29.585632,46.302444 29.323780,46.106464 29.000029,45.993191 
z"/>
<path fill="#1E3C74" opacity="1.000000" stroke="none" 
	d="
M35.001007,42.002850 
	C35.001007,42.002850 34.581501,41.999157 34.371841,41.993111 
	C34.117672,40.899460 34.073166,39.811863 34.101921,38.318184 
	C34.175182,37.912106 34.584629,37.950737 34.789223,37.970352 
	C35.103336,38.312618 35.293816,38.576916 35.780800,39.233490 
	C35.664570,40.457027 35.332787,41.229939 35.001007,42.002850 
z"/>
<path fill="#0A4B8F" opacity="1.000000" stroke="none" 
	d="
M14.670471,44.084038 
	C14.402424,44.929001 13.819226,45.698612 12.862933,46.731911 
	C12.323077,46.991901 12.156318,46.988201 11.989557,46.984501 
	C11.999958,45.949928 12.010358,44.915356 12.035511,43.496941 
	C12.050264,43.113102 12.439705,43.072483 12.635496,43.075745 
	C13.339300,43.388897 13.847311,43.698788 14.670471,44.084038 
z"/>
<path fill="#558BCF" opacity="1.000000" stroke="none" 
	d="
M12.130048,36.677872 
	C12.149974,36.178074 12.451280,35.806625 12.866838,35.623936 
	C12.791203,36.143871 12.601315,36.475044 12.130048,36.677872 
z"/>
<path fill="#0F3061" opacity="1.000000" stroke="none" 
	d="
M23.128311,15.111284 
	C24.163076,15.078373 25.172276,15.033548 26.560091,14.963164 
	C27.730673,14.950678 28.522636,14.963753 29.681904,15.256739 
	C30.043741,15.717231 30.038279,15.897811 30.032814,16.078390 
	C28.911106,16.701660 27.789398,17.324930 26.013824,17.980167 
	C24.597101,17.706608 23.834242,17.401081 23.071383,17.095552 
	C23.076605,16.920940 23.081825,16.746330 23.104298,16.060297 
	C23.121550,15.548876 23.071144,15.052642 23.071144,15.052642 
	C23.071144,15.052642 23.102743,15.099372 23.128311,15.111284 
z"/>
<path fill="#0B3568" opacity="1.000000" stroke="none" 
	d="
M22.771318,17.100367 
	C23.834242,17.401081 24.597101,17.706608 25.688643,18.027744 
	C25.795197,18.298727 25.573067,18.554104 25.101120,18.880295 
	C23.802856,18.747309 22.754408,18.543507 21.408941,18.215075 
	C21.565033,17.762024 22.018143,17.433601 22.771318,17.100367 
z"/>
<path fill="#28457C" opacity="1.000000" stroke="none" 
	d="
M30.372620,16.052113 
	C30.038279,15.897811 30.043741,15.717231 30.077026,15.266907 
	C30.104847,14.997163 30.530340,14.997788 30.742496,14.995462 
	C31.433702,15.002163 31.912754,15.011189 32.751038,15.039301 
	C32.310986,15.380870 31.511705,15.703352 30.372620,16.052113 
z"/>
<path fill="#493451" opacity="1.000000" stroke="none" 
	d="
M23.983150,50.008900 
	C21.834591,50.538059 19.686031,51.067223 17.373814,51.098061 
	C17.481867,50.388737 17.753576,50.177742 18.263565,49.962849 
	C18.501844,49.958950 18.978849,49.953785 19.308727,49.966255 
	C20.077694,49.974472 20.516779,49.970219 21.292234,49.972015 
	C22.076769,49.976112 22.524935,49.974148 23.225574,49.982418 
	C23.646418,49.998066 23.814783,50.003483 23.983150,50.008900 
z"/>
<path fill="#2D2B4E" opacity="1.000000" stroke="none" 
	d="
M24.358833,50.004524 
	C23.814783,50.003483 23.646418,49.998066 23.236917,49.635643 
	C23.331137,48.186543 23.666487,47.094452 24.001839,46.002357 
	C24.792645,46.308681 25.583452,46.615002 26.688261,46.979897 
	C26.999645,47.770802 26.997026,48.503139 26.989910,49.601265 
	C26.235113,49.978088 25.484814,49.989120 24.358833,50.004524 
z"/>
<path fill="#434066" opacity="1.000000" stroke="none" 
	d="
M18.025284,49.966747 
	C17.753576,50.177742 17.481867,50.388737 17.095215,50.835838 
	C16.247646,51.062836 15.515018,51.053730 14.417109,51.055946 
	C13.870425,51.044823 13.689021,51.022377 13.246420,50.652542 
	C12.992573,49.873619 12.999924,49.442078 13.392907,49.005829 
	C15.194121,49.322998 16.609703,49.644875 18.025284,49.966747 
z"/>
<path fill="#146DC7" opacity="1.000000" stroke="none" 
	d="
M15.751520,34.010658 
	C15.995596,33.994671 15.956808,34.461250 15.918237,34.691856 
	C15.486360,34.761967 15.093054,34.601471 14.699749,34.440975 
	C14.968981,34.302868 15.238213,34.164757 15.751520,34.010658 
z"/>
<path fill="#616BC8" opacity="1.000000" stroke="none" 
	d="
M40.651684,21.996471 
	C41.032345,22.006426 40.975239,22.441786 40.627220,22.693058 
	C39.506565,23.280415 38.733929,23.616497 37.955933,23.951880 
	C37.950573,23.951180 37.928471,23.926058 37.549644,23.923149 
	C36.414299,23.996822 35.657780,24.073404 34.901257,24.149986 
	C35.943134,23.392208 36.985012,22.634432 38.386856,21.873863 
	C39.254890,21.909552 39.762959,21.948034 40.651684,21.996471 
z"/>
<path fill="#2647B0" opacity="1.000000" stroke="none" 
	d="
M34.923759,24.347191 
	C35.657780,24.073404 36.414299,23.996822 37.574780,24.191332 
	C37.983814,24.641466 37.988888,24.820509 37.993961,24.999550 
	C37.993961,24.999550 37.999897,24.999596 37.994747,24.995623 
	C37.253532,24.985418 36.517467,24.979185 35.413601,24.950821 
	C35.045799,24.928688 34.946266,24.544397 34.923759,24.347191 
z"/>
<path fill="#114379" opacity="1.000000" stroke="none" 
	d="
M11.643261,47.000751 
	C12.156318,46.988201 12.323077,46.991901 12.739920,46.995163 
	C13.159125,46.996761 13.328248,46.998806 13.594190,47.240700 
	C13.127704,47.973812 12.564401,48.467079 11.618986,48.968765 
	C10.471249,48.961136 9.705623,48.945099 8.939997,48.929062 
	C9.725654,48.291706 10.511310,47.654354 11.643261,47.000751 
z"/>
<path fill="#3D477E" opacity="1.000000" stroke="none" 
	d="
M8.902466,49.144615 
	C9.705623,48.945099 10.471249,48.961136 11.870373,48.983704 
	C12.671672,48.997002 12.839474,49.003769 13.007275,49.010536 
	C12.999924,49.442078 12.992573,49.873619 12.973366,50.627693 
	C12.535347,50.956375 12.109183,50.962528 11.363710,50.966618 
	C10.501676,50.627911 9.958949,50.291267 9.089315,49.870117 
	C8.762409,49.785606 8.864936,49.360176 8.902466,49.144615 
z"/>
<path fill="#174CA1" opacity="1.000000" stroke="none" 
	d="
M16.278259,20.000738 
	C15.541362,20.048265 15.102658,20.050892 14.436494,19.827833 
	C14.474715,19.399168 14.740397,19.196190 15.338642,18.994238 
	C16.114634,18.995699 16.558064,18.996134 17.001493,18.996571 
	C17.178988,19.004810 17.356482,19.013050 17.799782,19.047626 
	C17.569212,19.367922 17.072832,19.661880 16.278259,20.000738 
z"/>
<path fill="#1B4098" opacity="1.000000" stroke="none" 
	d="
M16.978874,18.699875 
	C16.558064,18.996134 16.114634,18.995699 15.337108,18.655018 
	C14.986959,17.862144 14.970906,17.409513 14.965945,16.958002 
	C14.977037,16.959120 14.966541,16.974730 15.224741,16.986923 
	C15.655265,16.999517 15.827590,16.999918 15.999914,17.000317 
	C16.318695,17.467937 16.637474,17.935560 16.978874,18.699875 
z"/>
<path fill="#1B4098" opacity="1.000000" stroke="none" 
	d="
M19.135315,16.695690 
	C19.016466,16.373995 19.111071,16.021049 19.205677,15.668102 
	C19.253374,16.000216 19.301071,16.332327 19.135315,16.695690 
z"/>
<path fill="#174CA1" opacity="1.000000" stroke="none" 
	d="
M16.001438,16.731852 
	C15.827590,16.999918 15.655265,16.999517 15.240200,16.770260 
	C14.997460,16.541401 15.041242,16.108746 15.356244,16.000750 
	C15.868623,15.791132 16.065998,15.689510 16.234669,15.690529 
	C16.205965,15.793169 16.040686,15.927775 16.040686,15.927775 
	C16.028111,16.106314 16.015537,16.284851 16.001438,16.731852 
z"/>
<path fill="#0856A6" opacity="1.000000" stroke="none" 
	d="
M22.891411,15.129029 
	C23.071144,15.052642 23.121550,15.548876 23.103456,15.798264 
	C22.960802,15.766907 22.836241,15.486161 22.891411,15.129029 
z"/>
<path fill="#669BD7" opacity="1.000000" stroke="none" 
	d="
M16.882330,15.092266 
	C16.757944,15.308450 16.585545,15.515981 16.205158,15.807571 
	C16.040686,15.927775 16.205965,15.793169 16.299339,15.584922 
	C16.517952,15.253308 16.662367,15.159341 16.825956,15.094772 
	C16.825956,15.094772 16.877829,15.119758 16.882330,15.092266 
z"/>
<path fill="#243769" opacity="1.000000" stroke="none" 
	d="
M35.240398,42.264992 
	C35.332787,41.229939 35.664570,40.457027 35.999741,39.348175 
	C36.751434,39.009621 37.499741,39.007011 38.622120,39.008400 
	C38.997391,40.078033 38.998592,41.143677 38.997520,42.609509 
	C37.823429,42.848846 36.651611,42.687988 35.240398,42.264992 
z"/>
<path fill="#223B63" opacity="1.000000" stroke="none" 
	d="
M40.134773,45.304100 
	C40.021294,45.107071 40.517109,45.084759 40.763664,45.115902 
	C41.010223,45.147045 41.009232,45.562866 41.010551,45.770462 
	C40.705116,45.902615 40.450577,45.743637 40.134773,45.304100 
z"/>
<path fill="#223B63" opacity="1.000000" stroke="none" 
	d="
M32.174011,47.311489 
	C32.449394,46.417908 32.900963,45.754059 34.059799,45.043236 
	C35.532421,44.987404 36.297768,44.978546 37.063118,44.969688 
	C37.491714,44.982109 37.920311,44.994530 38.669128,45.033421 
	C38.350719,45.834095 37.712082,46.608299 36.661690,47.691330 
	C35.499825,48.000332 34.749714,48.000507 33.999603,48.000687 
	C33.449799,47.847530 32.899994,47.694374 32.174011,47.311489 
z"/>
<path fill="#1F2E4A" opacity="1.000000" stroke="none" 
	d="
M33.999851,48.250740 
	C34.749714,48.000507 35.499825,48.000332 36.624840,48.000305 
	C36.999775,48.167175 36.999813,48.333900 36.999603,48.751122 
	C36.249584,49.001343 35.499802,49.001076 34.375061,49.000862 
	C34.000099,48.834217 34.000099,48.667511 33.999851,48.250740 
z"/>
<path fill="#0F3968" opacity="1.000000" stroke="none" 
	d="
M28.993492,46.238522 
	C29.323780,46.106464 29.585632,46.302444 29.893721,46.805340 
	C29.831499,47.026897 29.661142,47.024250 29.236061,46.998127 
	C28.981340,46.974655 28.986958,46.483852 28.993492,46.238522 
z"/>
<path fill="#3373B5" opacity="1.000000" stroke="none" 
	d="
M5.996004,20.970732 
	C7.137128,19.723627 8.279814,18.492809 9.700688,17.105976 
	C9.978876,16.949957 9.993252,16.976791 9.997829,17.268894 
	C10.007981,17.747362 10.013555,17.933725 9.999500,18.400303 
	C9.664311,19.125696 9.348750,19.570875 8.732799,20.133831 
	C7.622226,20.506950 6.812045,20.762297 6.001863,21.017643 
	C6.001863,21.017643 5.997566,20.987020 5.996004,20.970732 
z"/>
<path fill="#3B8BC9" opacity="1.000000" stroke="none" 
	d="
M15.041242,16.108746 
	C15.041242,16.108746 14.997460,16.541401 14.982000,16.758064 
	C14.966541,16.974730 14.977037,16.959120 14.726588,16.964108 
	C14.476139,16.969093 13.998184,17.009768 13.756409,17.014580 
	C13.514632,17.019394 13.043445,17.128471 12.713421,17.122175 
	C11.944574,17.107092 11.505752,17.098307 11.049829,17.066603 
	C11.032727,17.043684 10.998206,16.998089 10.998206,16.998089 
	C11.803371,16.400833 12.608538,15.803576 13.930201,15.228523 
	C14.644879,15.536732 14.843060,15.822739 15.041242,16.108746 
z"/>
<path fill="#5783C2" opacity="1.000000" stroke="none" 
	d="
M15.356244,16.000750 
	C14.843060,15.822739 14.644879,15.536732 14.219990,15.117884 
	C13.993281,14.985043 14.062773,14.574333 14.081536,14.368628 
	C14.816298,14.092286 15.532296,14.021648 16.606443,13.907686 
	C16.957344,14.070626 16.950096,14.276889 16.884403,14.788962 
	C16.662367,15.159341 16.517952,15.253308 16.328041,15.482282 
	C16.065998,15.689510 15.868623,15.791132 15.356244,16.000750 
z"/>
<path fill="#3B8BC9" opacity="1.000000" stroke="none" 
	d="
M10.019129,18.120089 
	C10.013555,17.933725 10.007981,17.747362 10.001459,17.282166 
	C10.000511,17.003330 10.499885,16.999046 10.749045,16.998568 
	C10.998206,16.998089 11.032727,17.043684 10.929805,17.286030 
	C10.557631,17.725613 10.288380,17.922850 10.019129,18.120089 
z"/>
<path fill="#2756A1" opacity="1.000000" stroke="none" 
	d="
M7.037928,22.993666 
	C7.032144,23.160450 7.026360,23.327232 7.010421,23.744064 
	C6.673611,23.887074 6.408407,23.695126 6.088537,23.197491 
	C5.972421,22.976715 5.965894,22.958128 6.235187,22.965736 
	C6.682296,22.980122 6.860112,22.986895 7.037928,22.993666 
z"/>
<path fill="#1256BA" opacity="1.000000" stroke="none" 
	d="
M38.331841,24.998398 
	C37.988888,24.820509 37.983814,24.641466 37.953606,24.194241 
	C37.928471,23.926058 37.950573,23.951180 38.335281,23.968435 
	C39.478542,23.986013 40.237099,23.986338 40.995651,23.986660 
	C40.995651,23.986660 40.999065,23.996342 40.997925,23.999023 
	C40.221096,24.333551 39.445408,24.665400 38.331841,24.998398 
z"/>
<path fill="#2647B0" opacity="1.000000" stroke="none" 
	d="
M40.987617,23.709709 
	C40.237099,23.986338 39.478542,23.986013 38.340637,23.969135 
	C38.733929,23.616497 39.506565,23.280415 40.611610,22.912046 
	C40.955868,23.064096 40.967724,23.248428 40.987617,23.709709 
z"/>
<path fill="#4059A1" opacity="1.000000" stroke="none" 
	d="
M7.262827,22.994198 
	C6.860112,22.986895 6.682296,22.980122 6.237853,22.954643 
	C5.982403,22.509789 5.993579,22.083637 6.003309,21.337566 
	C6.812045,20.762297 7.622226,20.506950 8.721665,20.461121 
	C9.004088,21.107256 8.997253,21.543880 8.990419,21.980503 
	C8.990419,21.980503 8.993541,21.993967 8.770353,22.102333 
	C8.343951,22.472960 8.140736,22.735220 7.937520,22.997478 
	C7.937520,22.997478 7.487727,22.994730 7.262827,22.994198 
z"/>
<path fill="#2950A2" opacity="1.000000" stroke="none" 
	d="
M9.385148,21.988962 
	C8.997253,21.543880 9.004088,21.107256 9.022056,20.343344 
	C9.348750,19.570875 9.664311,19.125696 9.999500,18.400303 
	C10.288380,17.922850 10.557631,17.725613 10.946906,17.308949 
	C11.505752,17.098307 11.944574,17.107092 12.810356,17.266125 
	C13.490940,17.280836 13.744562,17.145302 13.998184,17.009768 
	C13.998184,17.009768 14.476139,16.969093 14.715496,16.962990 
	C14.970906,17.409513 14.986959,17.862144 15.004547,18.653994 
	C14.740397,19.196190 14.474715,19.399168 14.107309,19.836515 
	C14.005586,20.070885 14.000689,20.537935 13.984191,20.771032 
	C13.659424,21.097607 13.400165,21.266369 13.061392,21.706446 
	C11.881872,21.934124 10.830874,21.965773 9.385148,21.988962 
z"/>
<path fill="#215091" opacity="1.000000" stroke="none" 
	d="
M8.171444,22.897453 
	C8.140736,22.735220 8.343951,22.472960 8.773602,22.102118 
	C8.801813,22.261497 8.603590,22.529463 8.171444,22.897453 
z"/>
<path fill="#233D68" opacity="1.000000" stroke="none" 
	d="
M13.392907,49.005829 
	C12.839474,49.003769 12.671672,48.997002 12.252483,48.975292 
	C12.564401,48.467079 13.127704,47.973812 13.847887,47.242641 
	C15.793037,46.435513 17.581310,45.866291 19.690590,45.567627 
	C19.998861,46.899574 19.986122,47.960964 19.763559,49.125549 
	C19.291594,49.414497 19.099964,49.656178 18.978849,49.953785 
	C18.978849,49.953785 18.501844,49.958950 18.263565,49.962849 
	C16.609703,49.644875 15.194121,49.322998 13.392907,49.005829 
z"/>
<path fill="#2C3558" opacity="1.000000" stroke="none" 
	d="
M19.973383,49.022354 
	C19.986122,47.960964 19.998861,46.899574 20.020594,45.441849 
	C20.768408,45.041599 21.507229,45.037682 22.615650,45.037739 
	C23.118309,45.339603 23.318012,45.582760 23.793098,45.886768 
	C23.666487,47.094452 23.331137,48.186543 22.984444,49.625412 
	C22.524935,49.974148 22.076769,49.976112 21.184898,49.763371 
	C20.541773,49.290821 20.285837,49.115383 19.973383,49.022354 
z"/>
<path fill="#1E536F" opacity="1.000000" stroke="none" 
	d="
M36.840431,44.719921 
	C36.297768,44.978546 35.532421,44.987404 34.385368,44.994263 
	C34.003662,44.992260 34.011398,44.600414 34.018368,44.405903 
	C34.889473,44.297646 35.753605,44.383900 36.840431,44.719921 
z"/>
<path fill="#434066" opacity="1.000000" stroke="none" 
	d="
M19.763559,49.125549 
	C20.285837,49.115383 20.541773,49.290821 20.848530,49.757317 
	C20.516779,49.970219 20.077694,49.974472 19.308727,49.966255 
	C19.099964,49.656178 19.291594,49.414497 19.763559,49.125549 
z"/>
<path fill="#174CA1" opacity="1.000000" stroke="none" 
	d="
M13.756409,17.014580 
	C13.744562,17.145302 13.490940,17.280836 13.140381,17.272421 
	C13.043445,17.128471 13.514632,17.019394 13.756409,17.014580 
z"/>
</svg>